<svg width="383px" height="352px" viewBox="0 0 383 352" version="1.1" xmlns="http://www.w3.org/2000/svg" xmlns:xlink="http://www.w3.org/1999/xlink">
    <g id="Page-1" stroke="none" stroke-width="1" fill="none" fill-rule="evenodd">
        <path d="M380.344,194.11 L355.438,169.282 C352.219,166.018 346.969,165.985 343.75,169.282 L291.25,221.75 L231.187,281.938 L184.671,235.375 C181.405,232.094 176.155,232.094 172.921,235.375 L148.062,260.219 C144.796,263.5 144.796,268.75 148.062,272 L225.281,349.281 C228.562,352.562 233.875,352.562 237.062,349.281 L380.312,205.89 C383.625,202.656 383.625,197.406 380.343,194.109 L380.344,194.11 Z M114.234,226.406 L139.078,201.5 C160.312,180.312 197.25,180.281 218.469,201.531 L231.125,214.187 L288,160 L288,0 L0,0 L0,352 L160,352 L114.234,305.937 C92.343,283.968 92.343,248.312 114.234,226.406 Z M96,32 L256,32 L256,64 L96,64 L96,32 Z M96,96 L256,96 L256,128 L96,128 L96,96 Z M64,192 L32,192 L32,160 L64,160 L64,192 Z M64,128 L32,128 L32,96 L64,96 L64,128 Z M64,64 L32,64 L32,32 L64,32 L64,64 Z M96,160 L128,160 L128,192 L96,192 L96,160 Z" id="Shape" fill="#EC6E1B" fill-rule="nonzero"></path>
    </g>
</svg>
