<svg version="1" xmlns="http://www.w3.org/2000/svg" width="1021.333" height="1021.333" viewBox="0 0 766.000000 766.000000">
  <path d="M0 383v352h159.5c87.7 0 159.5-.2 159.5-.6 0-.3-20-20.6-44.5-45.2-48.4-48.7-53.8-54.3-56.3-58.5-.9-1.5-2-2.7-2.4-2.7-.4 0-.8-.4-.8-1 0-.5-1.5-3.3-3.4-6.2-4-6.4-11.2-22.9-12.1-27.8-.1-.5-.9-4.6-2-10-6.5-31.7 4.6-70.8 27-94.8 5.3-5.7 54.1-54.6 58.1-58.2 9.7-8.8 24.2-17.1 37.9-21.8 6.2-2.1 8-2.5 20.1-4.6 7.2-1.3 27.9-1.4 34.4-.1 21.2 3.9 37.4 10.8 51.9 21.9 3.1 2.4 12.3 11 20.4 19.1l14.8 14.8 2.6-2.4c3.1-2.9 16-15.1 28.3-26.9 4.9-4.7 13.9-13.2 20-19 6.1-5.8 14.9-14.1 19.5-18.5s15-14.3 23.1-22c22-20.9 20.7-19.1 20.8-26.9 0-3.6-.2-6.6-.6-6.6-.4 0-.3-1.3.2-3s.5-3.2 0-3.5c-.5-.3-.6-1.5 0-2.9.4-1.2.4-2.9 0-3.6-.5-.8-.5-2.1 0-3 .5-.9.5-2.2 0-3-.5-.8-.6-1.8-.3-2.3.8-1.3.9-8.7.1-8.7-.4 0-.3-1.4.2-3 .5-1.7.5-3 0-3s-.5-1.3 0-3 .5-3 0-3-.5-1.3 0-3 .5-3 0-3-.5-1.3 0-3 .5-3 0-3-.5-1.3 0-3 .6-3 .2-3c-.4 0-.7-1.6-.7-3.5s.3-3.5.7-3.5c.4 0 .3-1.4-.2-3-.5-1.7-.5-3 0-3 .4 0 .5-1.2.1-2.7-.4-1.6-.4-4.4-.1-6.5.4-2 .4-4.2-.1-4.9-.4-.7-.4-2 .1-2.9.5-.9.5-2.2 0-3-.5-.8-.5-2.1 0-3 .5-.9.5-2.2 0-3-.5-.8-.5-2.1 0-3 .5-.9.5-2.2 0-3-.5-.8-.5-2.1 0-3 .5-.9.5-2.2 0-3-.5-.8-.5-2.1 0-3 .5-.9.5-2.2 0-3-.5-.8-.5-2.1 0-3 .5-.9.5-2.2 0-3-.5-.8-.5-2.1 0-3 .5-.9.5-2.2 0-3-.5-.8-.5-2.1 0-3 .5-.9.5-2.2 0-3-.5-.8-.5-2.1 0-3 .5-.9.5-2.2 0-3-.5-.8-.5-2.1 0-3 .5-.9.5-2.2 0-3-.5-.8-.6-1.8-.3-2.3.8-1.3.9-8.7.1-8.7-.4 0-.3-1.4.2-3 .5-1.7.5-3 0-3s-.5-1.3 0-3 .5-3 0-3-.5-1.3 0-3 .5-3 0-3-.5-1.3 0-3 .5-3 0-3-.5-1.3 0-3 .6-3 .2-3c-.4 0-.7-1.6-.7-3.5s.3-3.5.7-3.5c.4 0 .3-1.4-.2-3-.5-1.7-.5-3 0-3 .4 0 .5-1.2.1-2.7-.4-1.6-.4-4.4-.1-6.5.4-2 .4-4.2-.1-4.9-.4-.7-.4-2 .1-2.9.5-.9.5-2.2 0-3-.5-.8-.5-2.1 0-3 .5-.9.5-2.2 0-3-.5-.8-.5-2.1 0-3 .5-.9.5-2.2 0-3-.5-.8-.5-2.1 0-3 .5-.9.5-2.2 0-3-.5-.8-.5-2.1 0-3 .5-.9.5-2.2 0-3-.5-.8-.5-2.1 0-3 .5-.9.5-2.2 0-3-.5-.8-.5-2.1 0-3 .5-.9.5-2.2 0-3-.5-.8-.5-2.1 0-3 .5-.9.5-2.2 0-3-.5-.8-.5-2.1 0-3 .5-.9.5-2.2 0-3-.5-.8-.5-2.1 0-3 .5-.9.5-2.2 0-3-.5-.8-.6-1.8-.3-2.3.8-1.3.9-8.7.1-8.7-.4 0-.3-1.4.2-3 .5-1.7.6-3 .2-3-.8 0-.7-6.8.1-7.6.3-.3.2-1.6-.3-2.9-.5-1.3-.6-2.6-.3-2.9.4-.3-129-.6-287.5-.6H0v352zM128.2 95.5c.3.3.2 2.3-.2 4.5s-.4 4 0 4 .4 1.6 0 3.5-.4 3.7 0 4c.4.3.4 2.1 0 4-.4 2-.4 3.8.1 4.1.5.3.6 1 .3 1.6-.8 1.3-.7 18.5.1 19.8.3.5.1 1.1-.4 1.4-.4.3-.5 2.4-.1 4.6.4 2.2.4 4.3 0 4.5-.4.3-.4 2.1 0 4l.8 3.5H64l-.1-3.8c-.1-2 0-4.2.1-4.7.1-.6.2-1.5.2-2-.4-5.3-.5-13.6-.1-13.9.2-.2.2-4.2-.1-8.8-.3-4.5-.3-11.1 0-14.6.3-3.4.3-6.2 0-6.2s-.3-2.2-.2-5l.4-5h31.7c17.5 0 32 .2 32.3.5zm384.1.1c.3.3.2 1.7-.3 3s-.6 2.6 0 2.9c.5.3.5 1.8 0 3.5s-.5 3-.1 3c.5 0 .5 1.8.1 4s-.4 4 .1 4c.4 0 .4 1.3-.1 3s-.5 3 0 3 .5 1.3 0 2.9c-.4 1.6-.6 3.1-.4 3.4.7.7 1 10.7.3 10.7-.4 0-.3 1.8.1 4s.4 4 0 4-.5 1.5-.1 3.2c.4 1.8.5 4.4.1 5.8l-.6 2.5-159.4.3c-120.8.1-159.6-.1-160.1-1-.4-.6-.4-2.1.1-3.3.5-1.2.5-2.8 0-3.5-.4-.7-.5-2.3 0-3.4.4-1.1.4-3.3 0-4.7-.4-1.5-.4-3.2 0-3.9.5-.7.5-2.3 0-3.4-.4-1.2-.4-3 0-4.1.7-1.8.3-7.5-.5-8.4-.2-.1 0-1.3.4-2.5.5-1.1.5-3 .1-4.1-.4-1.1-.4-3.2.1-4.8.4-1.5.5-2.7.1-2.7-.5 0-.7-12-.3-13.8.2-.5 319.8-.2 320.4.4zM127.9 225.7c0 1.6.2 7.4.3 13.1.2 5.6 0 10.2-.3 10.2s-.5 1-.2 2.2c.6 3.6.9 21.8.3 21.8-.5 0-.3 9.6.2 12.1.3 1.2-5.2 1.4-32 1.6l-32.3.2.1-5.2c.1-6.2.1-28.6 0-30.7-.1-4.8.2-10.5.6-11.2.3-.4.2-.8-.3-.8-.6 0-.8-8.1-.3-15.3 0-.4 14.4-.7 31.9-.7h32v2.7zm384.4-2.1c.3.3.2 1.7-.3 3s-.6 2.6 0 2.9c.5.3.5 1.8 0 3.5s-.5 3-.1 3c.5 0 .5 1.8.1 4s-.4 4 .1 4c.4 0 .4 1.3-.1 3s-.5 3 0 3 .5 1.3 0 2.9c-.4 1.6-.6 3.1-.4 3.4.7.7 1 10.7.3 10.7-.4 0-.3 1.8.1 4s.4 4 0 4-.5 1.5-.1 3.2c.4 1.8.5 4.4.1 5.8l-.6 2.5-159.6.2-159.6.3-.4-3.1c-.3-1.6-.1-3.2.3-3.5.4-.2.4-1.7-.1-3.3-.4-1.5-.4-3.4 0-4.2.5-.7.6-1.7.3-2.2-.8-1.3-.9-14.7-.1-14.7.4 0 .3-1.3-.2-2.9-.4-1.5-.4-3.4 0-4.2.5-.7.6-1.7.3-2.2-.5-.8-.6-12.3-.2-17 .1-.6 0-1.7-.1-2.2-.1-.6-.2-1.8-.1-2.8.1-1.6 8.4-1.7 159.9-1.7 87.9 0 160.1.3 160.5.6zM127.8 354.4c0 1.9.2 3.9.5 4.3.3.5.2 1.5-.2 2.2-.5.7-.5 2.8-.1 4.7.5 1.9.4 3.7-.1 4-.5.3-.7.9-.4 1.4.4.7.7 12.5.4 19v3.5c.1 1.1.1 4.1.1 6.8 0 2.6.1 5.1.1 5.5.1.4.1 2.6 0 4.9l-.1 4.2-31.8.1c-25.1 0-31.9-.2-32-1.2-.1-1.5-.2-9.6-.1-11.8 0-.8 0-7.1-.1-14s-.1-13 0-13.5c.1-.6.2-1.4.1-1.9-.3-1.2-.3-12.9-.1-14.1.1-.6.1-2.5 0-4.3l-.2-3.2h64v3.4zm127.9-2.8c-.3.3-.2 1.6.3 2.9.5 1.3.6 2.6.3 2.9-.8.8-.9 7.6-.1 7.6.4 0 .3 1.3-.2 3s-.5 3 0 3 .5 1.3 0 3-.5 3 0 3 .5 1.3 0 3-.5 3 0 3 .5 1.3 0 3-.5 3 0 3 .5 1.3 0 3-.5 3 0 3 .5 1.3 0 3-.5 3 0 3 .5 1.3 0 3c-.5 1.6-.6 3-.2 3 .4 0 .7 1.7.6 3.7l-.1 3.8-31.3.3c-17.2.1-31.7-.1-32.2-.6-.7-.7-.9-2.9-.8-7.2.1-.8.1-4 0-7 0-3 0-6.2.1-7v-7.5c-.1-3.3-.1-6.7 0-7.5 0-.8 0-2.4-.1-3.5-.1-2.9-.1-8.8 0-10.5v-3.5c-.1-2.2-.1-3.4.1-7l.2-2.5h32c17.6 0 31.8.3 31.4.6z"/><path d="M696.5 365c-1.6.4-4 1.2-5.3 1.9-1.2.6-53.2 52.2-115.5 114.5-83.8 83.9-113.5 113-114.3 112.2-9.6-9.5-63.7-63.4-76.6-76.4-9.5-9.5-18.8-18-20.7-18.8-4.1-1.7-9-1.8-12.8-.2-3.3 1.4-54.5 51.8-57.5 56.6-2.7 4.3-3.1 10.8-.9 15.2 2.2 4.4 157.8 160.3 162.3 162.6 4 2.1 10.5 2.1 14.4.1 1.6-.9 59.8-58.5 129.4-128.2l144.3-144.3c18.7-18.7 21.2-21.7 22-27 1.2-7.5-.1-9.3-26.7-36-13.8-14-26.8-26.7-28.9-28.4-4.3-3.4-8.8-4.7-13.2-3.8z" />
</svg>
